<svg width="14" height="14" viewBox="0 0 14 14" fill="none" xmlns="http://www.w3.org/2000/svg">
<path d="M4.29167 8.04175L7.71271 11.4628C7.91813 11.6682 8.02431 11.9133 8.03125 12.198C8.03819 12.4827 7.9375 12.7326 7.72917 12.9476C7.52083 13.1631 7.27431 13.2674 6.98958 13.2605C6.70486 13.2536 6.45965 13.1472 6.25396 12.9413L1.05 7.73112C0.947222 7.62821 0.871528 7.51904 0.822917 7.40362C0.774306 7.28821 0.75 7.15953 0.75 7.01758C0.75 6.87578 0.774306 6.7471 0.822917 6.63154C0.871528 6.51612 0.944444 6.4098 1.04167 6.31258L6.29167 1.06258C6.51389 0.840359 6.76507 0.729248 7.04521 0.729248C7.32521 0.729248 7.56708 0.840359 7.77083 1.06258C7.97917 1.26633 8.08333 1.50821 8.08333 1.78821C8.08333 2.06835 7.98028 2.31147 7.77417 2.51758L4.29167 6.00008H12.6463C12.9281 6.00008 13.1686 6.09932 13.3679 6.29779C13.5671 6.49626 13.6667 6.73585 13.6667 7.01654C13.6667 7.29723 13.5671 7.53828 13.3679 7.73967C13.1686 7.94105 12.9281 8.04175 12.6463 8.04175H4.29167Z" fill="white"/>
</svg>
