<svg width="14" height="16" viewBox="0 0 14 16" fill="none" xmlns="http://www.w3.org/2000/svg">
<path d="M4.10087 16C3.11063 16 2.26293 15.6536 1.55776 14.9608C0.852585 14.268 0.5 13.4351 0.5 12.4622C0.5 11.4893 0.852585 10.6565 1.55776 9.96367C2.26293 9.27085 3.11063 8.92445 4.10087 8.92445C4.44596 8.92445 4.76478 8.96498 5.05735 9.04606C5.34992 9.12713 5.63124 9.24874 5.90131 9.41089V1.57242C5.90131 1.57242 11.7936 -0.417654 12.7757 0.0798455C13.7578 0.577345 13.725 2.62578 12.7757 3.61762C11.7968 4.64046 7.70174 3.61778 7.70174 3.61778V12.4622C7.70174 13.4351 7.34916 14.268 6.64399 14.9608C5.93882 15.6536 5.09111 16 4.10087 16Z" fill="white"/>
</svg>
