<svg width="6" height="10" viewBox="0 0 6 10" fill="none" xmlns="http://www.w3.org/2000/svg">
<path d="M3.55862 5.00503L0.310345 1.74449C0.103448 1.53681 0 1.29798 0 1.028C0 0.758023 0.103448 0.519194 0.310345 0.311516C0.517241 0.103839 0.755172 0 1.02414 0C1.2931 0 1.53338 0.106193 1.74497 0.318578L5.71034 4.29892C5.8069 4.40138 5.87931 4.51006 5.92759 4.62498C5.97586 4.73989 6 4.86796 6 5.00918C6 5.1504 5.97586 5.27847 5.92759 5.39339C5.87931 5.5083 5.8069 5.61422 5.71034 5.71113L1.74497 9.69148C1.53338 9.90386 1.29655 10.0066 1.03448 9.99967C0.772414 9.99275 0.537931 9.88545 0.331034 9.67777C0.124138 9.47009 0.0206897 9.23127 0.0206897 8.96129C0.0206897 8.6913 0.124138 8.45248 0.331034 8.2448L3.55862 5.00503Z" fill="white"/>
</svg>
