<svg width="6" height="10" viewBox="0 0 6 10" fill="none" xmlns="http://www.w3.org/2000/svg">
<path d="M2.44138 5L5.68966 8.25726C5.89655 8.46473 6 8.70332 6 8.97303C6 9.24274 5.89655 9.48133 5.68966 9.6888C5.48276 9.89627 5.24483 10 4.97586 10C4.7069 10 4.46662 9.89391 4.25503 9.68174L0.289655 5.70539C0.193103 5.60304 0.12069 5.49447 0.0724138 5.37967C0.0241379 5.26487 0 5.13693 0 4.99585C0 4.85477 0.0241379 4.72683 0.0724138 4.61203C0.12069 4.49723 0.193103 4.39142 0.289655 4.29461L4.25503 0.318258C4.46662 0.106086 4.7069 0 4.97586 0C5.24483 0 5.48276 0.103734 5.68966 0.311203C5.89655 0.518672 6 0.757261 6 1.02697C6 1.29668 5.89655 1.53527 5.68966 1.74274L2.44138 5Z" fill="white"/>
</svg>
