<svg width="17" height="16" viewBox="0 0 17 16" fill="none" xmlns="http://www.w3.org/2000/svg">
<path d="M8.5 16C8.18 16 7.87333 15.94 7.58 15.82C7.28667 15.7 7.02667 15.5267 6.8 15.3C6.41333 14.9133 6.08 14.66 5.8 14.54C5.52 14.42 5.1 14.36 4.54 14.36C3.87333 14.36 3.30667 14.1267 2.84 13.66C2.37333 13.1933 2.14 12.6267 2.14 11.96C2.14 11.4 2.08 10.98 1.96 10.7C1.84 10.42 1.58667 10.0867 1.2 9.7C0.973333 9.47333 0.8 9.21333 0.68 8.92C0.56 8.62667 0.5 8.32 0.5 8C0.5 7.68 0.56 7.37333 0.68 7.08C0.8 6.78667 0.973333 6.52667 1.2 6.3C1.58667 5.91333 1.84 5.58 1.96 5.3C2.08 5.02 2.14 4.6 2.14 4.04C2.14 3.37333 2.37333 2.80667 2.84 2.34C3.30667 1.87333 3.87333 1.64 4.54 1.64C5.1 1.64 5.52 1.58 5.8 1.46C6.08 1.34 6.41333 1.08667 6.8 0.7C7.02667 0.473333 7.28667 0.3 7.58 0.18C7.87333 0.06 8.18 0 8.5 0C8.82 0 9.12667 0.06 9.42 0.18C9.71333 0.3 9.97333 0.473333 10.2 0.7C10.5867 1.08667 10.92 1.34 11.2 1.46C11.48 1.58 11.9 1.64 12.46 1.64C13.1267 1.64 13.6933 1.87333 14.16 2.34C14.6267 2.80667 14.86 3.37333 14.86 4.04C14.86 4.6 14.92 5.02 15.04 5.3C15.16 5.58 15.4133 5.91333 15.8 6.3C16.0267 6.52667 16.2 6.78667 16.32 7.08C16.44 7.37333 16.5 7.68 16.5 8C16.5 8.32 16.44 8.62667 16.32 8.92C16.2 9.21333 16.0267 9.47333 15.8 9.7C15.4133 10.0867 15.16 10.42 15.04 10.7C14.92 10.98 14.86 11.4 14.86 11.96C14.86 12.6267 14.6267 13.1933 14.16 13.66C13.6933 14.1267 13.1267 14.36 12.46 14.36C11.9 14.36 11.48 14.42 11.2 14.54C10.92 14.66 10.5867 14.9133 10.2 15.3C9.97333 15.5267 9.71333 15.7 9.42 15.82C9.12667 15.94 8.82 16 8.5 16ZM8.5 14.4C8.60667 14.4 8.71 14.3767 8.81 14.33C8.91 14.2833 8.99333 14.2267 9.06 14.16C9.60667 13.6133 10.12 13.2433 10.6 13.05C11.08 12.8567 11.7 12.76 12.46 12.76C12.6867 12.76 12.8767 12.6833 13.03 12.53C13.1833 12.3767 13.26 12.1867 13.26 11.96C13.26 11.1867 13.3567 10.5633 13.55 10.09C13.7433 9.61667 14.1133 9.10667 14.66 8.56C14.82 8.4 14.9 8.21333 14.9 8C14.9 7.78667 14.82 7.6 14.66 7.44C14.1133 6.89333 13.7433 6.38 13.55 5.9C13.3567 5.42 13.26 4.8 13.26 4.04C13.26 3.81333 13.1833 3.62333 13.03 3.47C12.8767 3.31667 12.6867 3.24 12.46 3.24C11.6867 3.24 11.0633 3.14333 10.59 2.95C10.1167 2.75667 9.60667 2.38667 9.06 1.84C8.99333 1.77333 8.91 1.71667 8.81 1.67C8.71 1.62333 8.60667 1.6 8.5 1.6C8.39333 1.6 8.29 1.62333 8.19 1.67C8.09 1.71667 8.00667 1.77333 7.94 1.84C7.39333 2.38667 6.88 2.75667 6.4 2.95C5.92 3.14333 5.3 3.24 4.54 3.24C4.31333 3.24 4.12333 3.31667 3.97 3.47C3.81667 3.62333 3.74 3.81333 3.74 4.04C3.74 4.81333 3.64333 5.43667 3.45 5.91C3.25667 6.38333 2.88667 6.89333 2.34 7.44C2.18 7.6 2.1 7.78667 2.1 8C2.1 8.21333 2.18 8.4 2.34 8.56C2.88667 9.10667 3.25667 9.62 3.45 10.1C3.64333 10.58 3.74 11.2 3.74 11.96C3.74 12.1867 3.81667 12.3767 3.97 12.53C4.12333 12.6833 4.31333 12.76 4.54 12.76C5.31333 12.76 5.93667 12.8567 6.41 13.05C6.88333 13.2433 7.39333 13.6133 7.94 14.16C8.00667 14.2267 8.09 14.2833 8.19 14.33C8.29 14.3767 8.39333 14.4 8.5 14.4ZM10.5 11.2C10.8333 11.2 11.1167 11.0833 11.35 10.85C11.5833 10.6167 11.7 10.3333 11.7 10C11.7 9.66667 11.5833 9.38333 11.35 9.15C11.1167 8.91667 10.8333 8.8 10.5 8.8C10.1667 8.8 9.88333 8.91667 9.65 9.15C9.41667 9.38333 9.3 9.66667 9.3 10C9.3 10.3333 9.41667 10.6167 9.65 10.85C9.88333 11.0833 10.1667 11.2 10.5 11.2ZM5.9 10.6C6.06 10.76 6.24667 10.84 6.46 10.84C6.67333 10.84 6.86 10.76 7.02 10.6L11.1 6.54C11.26 6.38 11.34 6.19 11.34 5.97C11.34 5.75 11.26 5.56 11.1 5.4C10.94 5.24 10.75 5.16 10.53 5.16C10.31 5.16 10.12 5.24 9.96 5.4L5.9 9.48C5.74 9.64 5.66 9.82667 5.66 10.04C5.66 10.2533 5.74 10.44 5.9 10.6ZM6.5 7.2C6.83333 7.2 7.11667 7.08333 7.35 6.85C7.58333 6.61667 7.7 6.33333 7.7 6C7.7 5.66667 7.58333 5.38333 7.35 5.15C7.11667 4.91667 6.83333 4.8 6.5 4.8C6.16667 4.8 5.88333 4.91667 5.65 5.15C5.41667 5.38333 5.3 5.66667 5.3 6C5.3 6.33333 5.41667 6.61667 5.65 6.85C5.88333 7.08333 6.16667 7.2 6.5 7.2Z" fill="white"/>
</svg>
