<svg width="16" height="16" viewBox="0 0 16 16" fill="none" xmlns="http://www.w3.org/2000/svg">
<g clip-path="url(#clip0_173_657)">
<path d="M13.7662 5.76566L13.6573 5.50349V2.34366H10.4965L10.2353 2.23484L8.00049 0L5.76566 2.23484L5.50349 2.34366H2.34366V5.50349L2.23484 5.76566L0 8.00049L2.23484 10.2343L2.34366 10.4965V13.6573H5.50349L5.76566 13.7662L8.00049 16L10.2353 13.7662L10.4965 13.6573H13.6573V10.4965L13.7662 10.2343L16 8.00049L13.7662 5.76566ZM11.3582 9.39146V11.3582H9.39146L8.26266 12.487L8.00049 12.7492L6.60953 11.3582H4.64181V9.39146L3.25085 8.00049L4.64181 6.60953V4.64181H6.60953L8.00049 3.25085L8.26266 3.51302L9.39146 4.64181H11.3582V6.60953L12.7492 8.00049L11.3582 9.39146Z" fill="white"/>
</g>
<defs>
<clipPath id="clip0_173_657">
<rect width="16" height="16" fill="white"/>
</clipPath>
</defs>
</svg>
