<svg width="34" height="34" viewBox="0 0 34 34" fill="none" xmlns="http://www.w3.org/2000/svg">
<path d="M14.5281 23.1945L22.8472 17.8749C23.1806 17.6619 23.3472 17.3702 23.3472 16.9999C23.3472 16.6296 23.1806 16.338 22.8472 16.1249L14.5281 10.8053C14.1853 10.5648 13.8311 10.5439 13.4656 10.7428C13.0997 10.942 12.9168 11.2545 12.9168 11.6803V22.3195C12.9168 22.7453 13.0997 23.0578 13.4656 23.257C13.8311 23.4559 14.1853 23.4351 14.5281 23.1945ZM17.0002 33.6666C14.7132 33.6666 12.5559 33.2291 10.5281 32.3541C8.5003 31.4791 6.73169 30.287 5.22225 28.7778C3.71308 27.2684 2.521 25.4998 1.646 23.472C0.770996 21.4442 0.333496 19.2869 0.333496 16.9999C0.333496 14.6944 0.770996 12.5277 1.646 10.4999C2.521 8.47214 3.71308 6.70825 5.22225 5.20825C6.73169 3.70825 8.5003 2.52075 10.5281 1.64575C12.5559 0.770752 14.7132 0.333252 17.0002 0.333252C19.3057 0.333252 21.4724 0.770752 23.5002 1.64575C25.5279 2.52075 27.2918 3.70825 28.7918 5.20825C30.2918 6.70825 31.4793 8.47214 32.3543 10.4999C33.2293 12.5277 33.6668 14.6944 33.6668 16.9999C33.6668 19.2869 33.2293 21.4442 32.3543 23.472C31.4793 25.4998 30.2918 27.2684 28.7918 28.7778C27.2918 30.287 25.5279 31.4791 23.5002 32.3541C21.4724 33.2291 19.3057 33.6666 17.0002 33.6666Z" fill="#925D3C"/>
</svg>
