<svg width="20" height="20" viewBox="0 0 20 20" fill="none" xmlns="http://www.w3.org/2000/svg">
<path d="M13.125 13.125H12.1569C11.7156 13.8875 10.8963 14.375 10 14.375C9.10375 14.375 8.28437 13.8875 7.84312 13.125H6.875C6.53 13.125 6.25 12.8456 6.25 12.5V5C6.25 4.655 6.53 4.375 6.875 4.375H7.84312C8.28437 3.6125 9.10313 3.125 10 3.125C10.8969 3.125 11.7163 3.6125 12.1569 4.375H13.125C13.47 4.375 13.75 4.655 13.75 5V12.5C13.75 12.8456 13.47 13.125 13.125 13.125ZM12.5 5.625H11.76C11.4956 5.625 11.26 5.45875 11.1712 5.20937C10.9937 4.71063 10.5231 4.375 10 4.375C9.47687 4.375 9.00625 4.71063 8.82875 5.20937C8.74 5.45875 8.50375 5.625 8.24 5.625H7.5V11.875H8.24C8.50437 11.875 8.74 12.0419 8.82875 12.2906C9.00687 12.79 9.4775 13.125 10.0006 13.125C10.5238 13.125 10.9944 12.79 11.1725 12.2906C11.2613 12.0419 11.4969 11.875 11.7612 11.875H12.5012V5.625H12.5Z" fill="#925D3C"/>
<path d="M3.75 16.875C3.405 16.875 3.125 16.5956 3.125 16.25V1.25C3.125 0.905 3.405 0.625 3.75 0.625H14.9088C15.9925 0.625 16.875 1.50687 16.875 2.59125V17.5C16.875 18.5338 16.0338 19.375 15 19.375H3.75C3.405 19.375 3.125 19.0956 3.125 18.75C3.125 18.4044 3.405 18.125 3.75 18.125H4.375V16.875H3.75ZM14.9088 1.875H4.375V15.625H15C15.22 15.625 15.4288 15.67 15.625 15.74V2.59125C15.625 2.19625 15.3038 1.875 14.9088 1.875ZM5.625 18.125H15C15.3444 18.125 15.625 17.845 15.625 17.5C15.625 17.155 15.3444 16.875 15 16.875H5.625V18.125Z" fill="#925D3C"/>
</svg>
