<svg width="20" height="20" viewBox="0 0 20 20" fill="none" xmlns="http://www.w3.org/2000/svg">
<path d="M19.328 2.80852C18.9073 2.51319 18.3673 2.43919 17.8833 2.61252L17.3327 2.80919V2.24519C17.3327 1.84786 17.15 1.48452 16.832 1.24719C16.5133 1.01052 16.1127 0.939189 15.7313 1.05319L9.99933 2.77319L4.26667 1.05319C3.88733 0.939189 3.48533 1.01119 3.16733 1.24719C2.84867 1.48452 2.66667 1.84786 2.66667 2.24519V2.80919L2.116 2.61252C1.63133 2.43919 1.092 2.51319 0.671333 2.80852C0.250667 3.10452 0 3.58919 0 4.10319V12.1672C0 12.8239 0.412667 13.4199 1.02733 13.6505L8.10067 16.3032L3.09867 18.1785C2.754 18.3079 2.57933 18.6925 2.70867 19.0372C2.80933 19.3045 3.06333 19.4692 3.33333 19.4692C3.41133 19.4692 3.49 19.4552 3.56733 19.4272L10 17.0152L16.4327 19.4272C16.51 19.4559 16.5887 19.4692 16.6667 19.4692C16.9367 19.4692 17.1907 19.3045 17.2913 19.0372C17.4207 18.6919 17.246 18.3079 16.9013 18.1785L11.8993 16.3032L18.9727 13.6505C19.5873 13.4199 20 12.8245 20 12.1672V4.10319C20 3.58919 19.7487 3.10452 19.328 2.80852ZM15.9993 2.36519V10.3512L10.666 12.4845V3.96519L15.9993 2.36519ZM3.99933 2.36519L9.33267 3.96586V12.4852L3.99933 10.3519V2.36519ZM18.666 12.1672C18.666 12.2712 18.6007 12.3652 18.504 12.4019L9.99933 15.5912L1.49467 12.4019C1.39733 12.3652 1.33267 12.2719 1.33267 12.1672V4.10319C1.33267 3.98986 1.39933 3.92652 1.43867 3.89852C1.47733 3.86986 1.56 3.82852 1.66667 3.86719L2.666 4.22386V10.4112C2.666 10.9225 2.97267 11.3752 3.448 11.5659L9.752 14.0872C9.832 14.1192 9.916 14.1345 10 14.1345C10.084 14.1345 10.168 14.1192 10.248 14.0872L16.5527 11.5652C17.0273 11.3752 17.334 10.9219 17.334 10.4112V4.22386L18.334 3.86719C18.4407 3.82919 18.522 3.87052 18.5613 3.89852C18.6013 3.92652 18.6673 3.98986 18.6673 4.10319V12.1672H18.666Z" fill="#925D3C"/>
</svg>
