<svg width="20" height="20" viewBox="0 0 20 20" fill="none" xmlns="http://www.w3.org/2000/svg">
<mask id="mask0_173_1350" style="mask-type:alpha" maskUnits="userSpaceOnUse" x="0" y="0" width="20" height="20">
<rect width="20" height="20" fill="#925D3C"/>
</mask>
<g mask="url(#mask0_173_1350)">
<path d="M8.72925 9.0625H9.16675C9.49175 9.0625 9.76397 8.95278 9.98342 8.73333C10.2029 8.51389 10.3126 8.24861 10.3126 7.9375V7.54167C10.3126 7.21667 10.2029 6.94444 9.98342 6.725C9.76397 6.50556 9.49175 6.39583 9.16675 6.39583H8.16675C8.00564 6.39583 7.87161 6.44931 7.76467 6.55625C7.65772 6.6632 7.60425 6.79722 7.60425 6.95833V10.0417C7.60425 10.2028 7.65772 10.3368 7.76467 10.4438C7.87161 10.5507 8.00564 10.6042 8.16675 10.6042C8.32786 10.6042 8.46189 10.5507 8.56883 10.4438C8.67578 10.3368 8.72925 10.2028 8.72925 10.0417V9.0625ZM8.72925 7.9375V7.54167H9.16675V7.9375H8.72925ZM12.3334 10.6042C12.6445 10.6042 12.9133 10.4944 13.1397 10.275C13.3661 10.0556 13.4792 9.78333 13.4792 9.45833V7.54167C13.4792 7.21667 13.3661 6.94444 13.1397 6.725C12.9133 6.50556 12.6445 6.39583 12.3334 6.39583H11.3334C11.1723 6.39583 11.0383 6.44931 10.9313 6.55625C10.8244 6.6632 10.7709 6.79722 10.7709 6.95833V10.0417C10.7709 10.2028 10.8244 10.3368 10.9313 10.4438C11.0383 10.5507 11.1723 10.6042 11.3334 10.6042H12.3334ZM11.8959 9.45833V7.54167H12.3334V9.45833H11.8959ZM15.0001 9.0625H15.277C15.4396 9.0625 15.573 9.00903 15.6772 8.90208C15.7813 8.79514 15.8334 8.66111 15.8334 8.5C15.8334 8.33889 15.7799 8.20486 15.673 8.09792C15.5661 7.99097 15.432 7.9375 15.2709 7.9375H15.0001V7.54167H15.277C15.4396 7.54167 15.573 7.48472 15.6772 7.37083C15.7813 7.25694 15.8334 7.11944 15.8334 6.95833C15.8334 6.79722 15.7797 6.6632 15.6722 6.55625C15.5648 6.44931 15.4302 6.39583 15.2684 6.39583H14.4303C14.2685 6.39583 14.1355 6.44931 14.0313 6.55625C13.9272 6.6632 13.8751 6.79722 13.8751 6.95833V10.0417C13.8751 10.2028 13.9286 10.3368 14.0355 10.4438C14.1424 10.5507 14.2765 10.6042 14.4376 10.6042C14.5987 10.6042 14.7327 10.5507 14.8397 10.4438C14.9466 10.3368 15.0001 10.2028 15.0001 10.0417V9.0625ZM6.68758 15.625C6.1223 15.625 5.64071 15.426 5.24279 15.0281C4.84487 14.6302 4.64591 14.1486 4.64591 13.5833V3.41667C4.64591 2.85139 4.84487 2.36979 5.24279 1.97188C5.64071 1.57396 6.1223 1.375 6.68758 1.375H16.8542C17.4195 1.375 17.9011 1.57396 18.299 1.97188C18.697 2.36979 18.8959 2.85139 18.8959 3.41667V13.5833C18.8959 14.1486 18.697 14.6302 18.299 15.0281C17.9011 15.426 17.4195 15.625 16.8542 15.625H6.68758ZM3.14591 19.1667C2.58064 19.1667 2.09904 18.9677 1.70112 18.5698C1.30321 18.1719 1.10425 17.6903 1.10425 17.125V5.9375C1.10425 5.65556 1.20348 5.41493 1.40196 5.21562C1.60043 5.01632 1.84001 4.91667 2.12071 4.91667C2.4014 4.91667 2.64244 5.01632 2.84383 5.21562C3.04522 5.41493 3.14591 5.65556 3.14591 5.9375V17.125H14.3334C14.6154 17.125 14.856 17.2242 15.0553 17.4227C15.2546 17.6212 15.3542 17.8608 15.3542 18.1415C15.3542 18.4222 15.2546 18.6632 15.0553 18.8646C14.856 19.066 14.6154 19.1667 14.3334 19.1667H3.14591Z" fill="#925D3C"/>
</g>
</svg>
