<svg width="20" height="20" viewBox="0 0 20 20" fill="none" xmlns="http://www.w3.org/2000/svg">
<mask id="mask0_173_1347" style="mask-type:alpha" maskUnits="userSpaceOnUse" x="0" y="0" width="20" height="20">
<rect width="20" height="20" fill="#925D3C"/>
</mask>
<g mask="url(#mask0_173_1347)">
<path d="M15.7101 11.0208H14.172C13.8906 11.0208 13.6492 10.9216 13.4478 10.7231C13.2464 10.5246 13.1458 10.285 13.1458 10.0043C13.1458 9.72365 13.2452 9.48261 13.4441 9.28122C13.6431 9.07983 13.8833 8.97913 14.1647 8.97913H15.7028C15.9842 8.97913 16.2256 9.07837 16.427 9.27684C16.6284 9.47531 16.7291 9.7149 16.7291 9.99559C16.7291 10.2763 16.6296 10.5173 16.4308 10.7187C16.2317 10.9201 15.9915 11.0208 15.7101 11.0208ZM12.3958 13.2291C12.5763 13.0208 12.8014 12.8958 13.071 12.8541C13.3407 12.8125 13.5809 12.875 13.7916 13.0416L15.0208 13.9375C15.243 14.118 15.3749 14.3541 15.4166 14.6458C15.4583 14.9375 15.3888 15.1944 15.2083 15.4166C15.0277 15.625 14.7951 15.75 14.5103 15.7916C14.2256 15.8333 13.9758 15.77 13.7608 15.6016L12.5724 14.69C12.3435 14.5077 12.2117 14.2743 12.177 13.9896C12.1423 13.7048 12.2152 13.4514 12.3958 13.2291ZM14.9899 6.06184L13.8016 6.95893C13.5866 7.12518 13.3402 7.184 13.0624 7.13538C12.7846 7.08677 12.5555 6.9583 12.3749 6.74997C12.1944 6.52775 12.1235 6.27497 12.1624 5.99163C12.2014 5.7083 12.3364 5.47636 12.5674 5.2958L13.7708 4.3958C13.9791 4.22913 14.2256 4.16663 14.5103 4.2083C14.7951 4.24997 15.0277 4.37497 15.2083 4.5833C15.3888 4.80552 15.4548 5.06247 15.4062 5.35413C15.3576 5.6458 15.2188 5.8817 14.9899 6.06184ZM5.56242 12.4166H3.29159C3.00964 12.4166 2.76902 12.317 2.56971 12.1177C2.3704 11.9184 2.27075 11.6777 2.27075 11.3958V8.60413C2.27075 8.32219 2.3704 8.08156 2.56971 7.88226C2.76902 7.68295 3.00964 7.5833 3.29159 7.5833H5.56242L8.39575 4.7083C8.7152 4.37497 9.08672 4.3017 9.51034 4.48851C9.93395 4.67531 10.1458 4.99309 10.1458 5.44184V14.556C10.1458 15.0048 9.93395 15.3229 9.51034 15.5104C9.08672 15.6979 8.7152 15.625 8.39575 15.2916L5.56242 12.4166Z" fill="#925D3C"/>
</g>
</svg>
