<svg width="20" height="20" viewBox="0 0 20 20" fill="none" xmlns="http://www.w3.org/2000/svg">
<mask id="mask0_173_1344" style="mask-type:alpha" maskUnits="userSpaceOnUse" x="0" y="0" width="20" height="20">
<rect width="20" height="20" fill="#925D3C"/>
</mask>
<g mask="url(#mask0_173_1344)">
<path d="M10.5416 9.97909L7.27075 6.70825C7.06242 6.49992 6.95825 6.26034 6.95825 5.9895C6.95825 5.71867 7.06242 5.47909 7.27075 5.27075C7.47909 5.06242 7.71867 4.95825 7.9895 4.95825C8.26034 4.95825 8.50228 5.06478 8.71534 5.27784L12.7083 9.27075C12.8055 9.37353 12.8784 9.48256 12.927 9.59784C12.9756 9.71311 12.9999 9.84159 12.9999 9.98325C12.9999 10.1249 12.9756 10.2534 12.927 10.3687C12.8784 10.4839 12.8055 10.5902 12.7083 10.6874L8.71534 14.6803C8.50228 14.8934 8.26381 14.9964 7.99992 14.9895C7.73603 14.9826 7.49992 14.8749 7.29159 14.6666C7.08325 14.4583 6.97909 14.2187 6.97909 13.9478C6.97909 13.677 7.08325 13.4374 7.29159 13.2291L10.5416 9.97909Z" fill="#925D3C"/>
</g>
</svg>
