<svg width="20" height="20" viewBox="0 0 20 20" fill="none" xmlns="http://www.w3.org/2000/svg">
<path d="M18.0894 10.9556C17.4319 10.2981 16.3931 10.1956 15.6194 10.7106L11.1544 13.6875C11.2113 13.5087 11.25 13.3219 11.25 13.125C11.25 12.0912 10.4087 11.25 9.375 11.25H4.26C4.00125 10.5244 3.31375 10 2.5 10C1.46625 10 0.625 10.8412 0.625 11.875V17.5C0.625 18.5337 1.46625 19.375 2.5 19.375C3.31375 19.375 4.00125 18.8506 4.26 18.125H10.8719C11.6613 18.125 12.4163 17.8794 13.055 17.415L17.8575 13.9225C18.3213 13.585 18.6125 13.0638 18.6575 12.4925C18.7025 11.9213 18.495 11.3606 18.0894 10.9556ZM3.125 17.5C3.125 17.8444 2.84437 18.125 2.5 18.125C2.15562 18.125 1.875 17.8444 1.875 17.5V11.875C1.875 11.5306 2.15562 11.25 2.5 11.25C2.84437 11.25 3.125 11.5306 3.125 11.875V17.5ZM17.1213 12.9119L12.3194 16.4044C11.8956 16.7125 11.395 16.875 10.8719 16.875H4.375V12.5H9.375C9.71937 12.5 10 12.7806 10 13.125C10 13.4694 9.71937 13.75 9.375 13.75H6.875C6.53 13.75 6.25 14.03 6.25 14.375C6.25 14.72 6.53 15 6.875 15H11.25C11.3731 15 11.4944 14.9631 11.5969 14.895L16.3131 11.7506C16.5925 11.565 16.9675 11.6013 17.2056 11.8394C17.3544 11.9881 17.4269 12.185 17.4106 12.395C17.3944 12.6044 17.2913 12.7881 17.1213 12.9119Z" fill="#925D3C"/>
<path d="M10.29 9.49509C10.4119 9.61697 10.5719 9.67822 10.7319 9.67822C10.8919 9.67822 11.0519 9.61697 11.1738 9.49509L14.7094 5.95947C15.9275 4.74072 15.9275 2.75822 14.7094 1.54009C13.6288 0.460094 11.9488 0.337594 10.7319 1.17259C9.51566 0.337594 7.83504 0.460094 6.75441 1.54009C5.53629 2.75884 5.53629 4.74134 6.75441 5.95947L10.29 9.49509ZM7.63879 2.42384C8.36941 1.69322 9.55879 1.69197 10.2907 2.42384C10.535 2.66822 10.93 2.66822 11.1744 2.42384C11.905 1.69322 13.0944 1.69259 13.8263 2.42384C14.5569 3.15509 14.5569 4.34447 13.8263 5.07572L10.7325 8.16947L7.63879 5.07572C6.90816 4.34447 6.90816 3.15509 7.63879 2.42384Z" fill="#925D3C"/>
</svg>
