<svg width="20" height="20" viewBox="0 0 20 20" fill="none" xmlns="http://www.w3.org/2000/svg">
<g clip-path="url(#clip0_173_1331)">
<path d="M19.2807 9.55813L16.875 7.15188V3.75C16.875 3.40438 16.595 3.125 16.25 3.125H12.8475L10.4419 0.71875C10.2075 0.484375 9.79254 0.484375 9.55817 0.71875L7.15254 3.125H3.75004C3.40504 3.125 3.12504 3.40438 3.12504 3.75V7.15188L0.719414 9.55813C0.475039 9.8025 0.475039 10.1975 0.719414 10.4419L3.12504 12.8481V16.25C3.12504 16.5956 3.40504 16.875 3.75004 16.875H7.15254L9.55817 19.2812C9.67566 19.3988 9.83442 19.4644 10 19.4644C10.1657 19.4644 10.325 19.3988 10.4419 19.2812L12.8475 16.875H16.25C16.595 16.875 16.875 16.5956 16.875 16.25V12.8481L19.2807 10.4419C19.525 10.1975 19.525 9.8025 19.2807 9.55813ZM15.8082 12.1475C15.6907 12.265 15.625 12.4231 15.625 12.5894V15.625H12.5888C12.4232 15.625 12.2638 15.6906 12.1469 15.8081L10 17.9556L7.85316 15.8081C7.73566 15.6906 7.57691 15.625 7.41129 15.625H4.37504V12.5894C4.37504 12.4231 4.30941 12.2644 4.19191 12.1475L2.04504 10L4.19191 7.8525C4.30941 7.735 4.37504 7.57688 4.37504 7.41063V4.375H7.41129C7.57691 4.375 7.73629 4.30937 7.85316 4.19187L10 2.04437L12.1469 4.19187C12.2644 4.30937 12.4232 4.375 12.5888 4.375H15.625V7.41063C15.625 7.57688 15.6907 7.73563 15.8082 7.8525L17.955 10L15.8082 12.1475Z" fill="#925D3C"/>
<path d="M14.1606 8.27679V6.46429C14.1606 6.11866 13.8806 5.83929 13.5356 5.83929H11.7237L10.4425 4.55804C10.1981 4.31366 9.8031 4.31366 9.55872 4.55804L8.27747 5.83929H6.4656C6.1206 5.83929 5.8406 6.11866 5.8406 6.46429V8.27679L4.55935 9.55804C4.44185 9.67554 4.37622 9.83366 4.37622 9.99991C4.37622 10.1662 4.44185 10.3249 4.55935 10.4418L5.8406 11.723V13.5355C5.8406 13.8812 6.1206 14.1605 6.4656 14.1605H8.27747L9.55872 15.4418C9.6806 15.5637 9.8406 15.6249 10.0006 15.6249C10.1606 15.6249 10.3206 15.5637 10.4425 15.4418L11.7237 14.1605H13.5356C13.8806 14.1605 14.1606 13.8812 14.1606 13.5355V11.723L15.4418 10.4418C15.5593 10.3243 15.625 10.1662 15.625 9.99991C15.625 9.83366 15.5593 9.67491 15.4418 9.55804L14.1606 8.27679ZM13.0937 11.0224C12.9762 11.1399 12.9106 11.298 12.9106 11.4643V12.9105H11.465C11.2993 12.9105 11.14 12.9762 11.0231 13.0937L10.0006 14.1162L8.9781 13.0937C8.8606 12.9762 8.70185 12.9105 8.53622 12.9105H7.0906V11.4643C7.0906 11.298 7.02497 11.1393 6.90747 11.0224L5.88497 9.99991L6.90747 8.97741C7.02497 8.85991 7.0906 8.70179 7.0906 8.53554V7.08929H8.53622C8.70185 7.08929 8.86122 7.02366 8.9781 6.90616L10.0006 5.88366L11.0231 6.90616C11.1406 7.02366 11.2993 7.08929 11.465 7.08929H12.9106V8.53554C12.9106 8.70179 12.9762 8.86054 13.0937 8.97741L14.1162 9.99991L13.0937 11.0224Z" fill="#925D3C"/>
</g>
<defs>
<clipPath id="clip0_173_1331">
<rect width="20" height="20" fill="white"/>
</clipPath>
</defs>
</svg>
