<svg width="20" height="20" viewBox="0 0 20 20" fill="none" xmlns="http://www.w3.org/2000/svg">
<path d="M14.2334 1.27173C15.4997 1.1654 16.6749 1.49783 17.5947 2.44165V2.44067C19.8015 4.70628 19.8018 8.40404 17.5947 10.6711L10.3662 18.092C10.2615 18.1996 10.1295 18.2502 10 18.2502C9.87048 18.2502 9.73852 18.1996 9.63379 18.092L2.40527 10.6711C0.198605 8.40564 0.197508 4.7078 2.4043 2.44067L2.40527 2.44165C3.32512 1.49783 4.50096 1.16536 5.76758 1.27173C7.05195 1.37967 8.40788 1.94108 9.56836 2.75903L10 3.06372L10.4316 2.76001C11.593 1.94187 12.9491 1.37959 14.2334 1.27173Z" stroke="#925D3C" stroke-width="1.5"/>
</svg>
