<svg width="80" height="80" viewBox="0 0 80 80" fill="none" xmlns="http://www.w3.org/2000/svg">
<mask id="mask0_173_648" style="mask-type:alpha" maskUnits="userSpaceOnUse" x="0" y="0" width="80" height="80">
<rect width="80" height="80" fill="#D9D9D9"/>
</mask>
<g mask="url(#mask0_173_648)">
<path d="M30 10C30 4.47715 34.4772 0 40 0C45.5228 0 50 4.47715 50 10V70C50 75.5229 45.5228 80 40 80C34.4772 80 30 75.5229 30 70V10Z" fill="#E9DFD8"/>
<path d="M10 50C4.47715 50 2.41411e-07 45.5228 0 40C-2.41411e-07 34.4772 4.47715 30 10 30L70 30C75.5229 30 80 34.4771 80 40C80 45.5228 75.5229 50 70 50L10 50Z" fill="#E9DFD8"/>
</g>
</svg>
