<svg width="80" height="80" viewBox="0 0 80 80" fill="none" xmlns="http://www.w3.org/2000/svg">
<mask id="mask0_173_645" style="mask-type:alpha" maskUnits="userSpaceOnUse" x="0" y="0" width="80" height="80">
<rect width="80" height="80" fill="#D9D9D9"/>
</mask>
<g mask="url(#mask0_173_645)">
<path d="M40.5202 2.3378C41.3829 3.21282 42.3163 4.55406 42.6432 5.76692C44.4663 12.4799 42.2624 19.9091 40.9583 26.4633C40.8909 26.8045 40.382 27.1288 40.3753 27.5613C42.6398 31.6492 45.4705 35.129 48.4359 38.6764C48.6718 38.9568 48.6853 39.4568 48.9077 39.7135C49.4435 40.3352 53.3828 44.467 53.713 44.5548C55.435 45.0177 57.4401 44.119 59.0475 43.9231C65.5141 43.1291 78.2049 41.4298 79.8965 50.2036C80.557 53.626 77.9757 58.0855 74.4307 58.6734C70.7205 59.2882 64.7121 59.0416 61.194 57.8456C58.8318 57.0416 54.0062 53.5956 52.6077 53.3287C50.5522 52.9368 44.3348 55.0449 41.9894 55.7814C37.056 57.322 32.2271 59.3828 27.3847 61.17C21.9053 67.8627 15.1017 83.2684 4.11606 79.3799C1.28205 78.3765 -0.426451 74.5588 0.092501 71.6702C0.982133 66.7208 10.0234 61.3863 14.1278 59.0754C15.8397 58.1092 20.2474 56.5618 21.383 55.3152C22.1176 54.5077 24.3855 49.2948 25.0426 47.8759C26.0266 45.7542 26.8927 43.4839 27.7149 41.4771C28.618 39.2743 32.6045 29.9769 32.2574 28.3147C32.0182 27.1727 29.8817 23.4531 29.2886 21.8449C27.479 16.9462 25.1943 8.97645 27.6509 4.11824C30.0468 -0.621713 36.8943 -1.3447 40.5202 2.3378ZM35.9844 18.9679C35 17.5 36.1394 9.75349 35.9844 8.73996C35.8732 8.01359 35.4419 6.946 34.4983 7.20614C32.9415 7.63183 37.6491 4.40879 38.2523 5.76692C38.4107 6.12166 35.5464 19.4037 35.9844 18.9679ZM38.2523 37.9365C38.1175 37.8081 37.4166 37.4466 37.3593 37.4905L31.9811 51.2881L45.0728 47.2475C45.2211 45.9434 43.8058 45.3184 43.0678 44.3825C41.7805 42.7575 39.4823 39.1054 38.2523 37.9365ZM74.4307 47.8759C75.7786 48.1732 73.5882 53.8625 72.9446 51.1259C72.5941 49.6326 65.3996 49.7644 64.0314 49.9266C62.7947 50.0752 74.3633 46.636 74.4307 47.8759ZM5 75C4.81803 74.7905 8.81696 70.6229 8.45639 70.9608C7.85656 71.525 7.36794 72.2953 7.46566 73.1635C8.19017 73.2311 8.6788 73.2243 9.32917 72.8493C10.0705 72.4203 5.72788 75.8379 5 75Z" fill="#E9DFD8"/>
</g>
</svg>
