<svg width="16" height="16" viewBox="0 0 16 16" fill="none" xmlns="http://www.w3.org/2000/svg">
<path d="M8.10404 0.467561C8.27658 0.642564 8.46326 0.910813 8.52864 1.15338C8.89325 2.49598 8.45248 3.98182 8.19166 5.29266C8.17818 5.3609 8.07641 5.42577 8.07506 5.51225C8.52796 6.32984 9.09409 7.0258 9.68718 7.73527C9.73436 7.79135 9.73705 7.89136 9.78154 7.94271C9.8887 8.06703 10.6766 8.8934 10.7426 8.91097C11.087 9.00354 11.488 8.82381 11.8095 8.78462C13.1028 8.62583 15.641 8.28596 15.9793 10.0407C16.1114 10.7252 15.5951 11.6171 14.8861 11.7347C14.1441 11.8576 12.9424 11.8083 12.2388 11.5691C11.7664 11.4083 10.8012 10.7191 10.5215 10.6657C10.1104 10.5874 8.86697 11.009 8.39789 11.1563C7.41121 11.4644 6.44542 11.8766 5.47693 12.234C4.38107 13.5725 3.02033 16.6537 0.823213 15.876C0.256409 15.6753 -0.0852902 14.9118 0.0185002 14.334C0.196427 13.3442 2.00467 12.2773 2.82556 11.8151C3.16793 11.6218 4.04948 11.3124 4.2766 11.063C4.42353 10.9015 4.8771 9.85896 5.00853 9.57517C5.20532 9.15084 5.37853 8.69678 5.54298 8.29542C5.7236 7.85487 6.5209 5.99537 6.45148 5.66293C6.40363 5.43455 5.97634 4.69062 5.85772 4.36899C5.4958 3.38924 5.03885 1.79529 5.53017 0.823649C6.00936 -0.124343 7.37886 -0.26894 8.10404 0.467561ZM7.19689 3.79358C7 3.5 7.22789 1.9507 7.19689 1.74799C7.17465 1.60272 7.08838 1.3892 6.89967 1.44123C6.5883 1.52637 7.52982 0.881758 7.65046 1.15338C7.68214 1.22433 7.10927 3.88075 7.19689 3.79358ZM7.65046 7.5873C7.62351 7.56162 7.48332 7.48932 7.47186 7.4981L6.39622 10.2576L9.01457 9.44949C9.04422 9.18868 8.76116 9.06368 8.61356 8.87651C8.3561 8.5515 7.89646 7.82108 7.65046 7.5873ZM14.8861 9.57517C15.1557 9.63463 14.7176 10.7725 14.5889 10.2252C14.5188 9.92653 13.0799 9.95288 12.8063 9.98532C12.5589 10.015 14.8727 9.32719 14.8861 9.57517ZM1 15C0.963606 14.9581 1.76339 14.1246 1.69128 14.1922C1.57131 14.305 1.47359 14.4591 1.49313 14.6327C1.63803 14.6462 1.73576 14.6449 1.86583 14.5699C2.01411 14.4841 1.14558 15.1676 1 15Z" fill="white"/>
</svg>
