<svg width="80" height="80" viewBox="0 0 80 80" fill="none" xmlns="http://www.w3.org/2000/svg">
<mask id="mask0_171_1286" style="mask-type:alpha" maskUnits="userSpaceOnUse" x="0" y="0" width="80" height="80">
<rect width="80" height="80" fill="#D9D9D9"/>
</mask>
<g mask="url(#mask0_171_1286)">
<path d="M25.0044 80C20.0532 80 15.8146 78.268 12.2888 74.8039C8.76293 71.3398 7 67.1756 7 62.3111C7 57.4467 8.76293 53.2824 12.2888 49.8183C15.8146 46.3543 20.0532 44.6222 25.0044 44.6222C26.7298 44.6222 28.3239 44.8249 29.7868 45.2303C31.2496 45.6357 32.6562 46.2437 34.0065 47.0545V7.8621C34.0065 7.8621 63.4682 -2.08827 68.3785 0.399227C73.2888 2.88673 73.1249 13.1289 68.3785 18.0881C63.4838 23.2023 43.0087 18.0889 43.0087 18.0889V62.3111C43.0087 67.1756 41.2458 71.3398 37.7199 74.8039C34.1941 78.268 29.9556 80 25.0044 80Z" fill="#E9DFD8"/>
</g>
</svg>
